<?xml version="1.0" encoding="UTF-8" standalone="no"?>
<!DOCTYPE svg PUBLIC "-//W3C//DTD SVG 1.1//EN" "http://www.w3.org/Graphics/SVG/1.1/DTD/svg11.dtd">
<svg width="100%" height="100%" viewBox="0 0 203 130" version="1.1" xmlns="http://www.w3.org/2000/svg" xmlns:xlink="http://www.w3.org/1999/xlink" xml:space="preserve" xmlns:serif="http://www.serif.com/" style="fill-rule:evenodd;clip-rule:evenodd;stroke-linecap:round;stroke-linejoin:round;stroke-miterlimit:1.5;">
    <g transform="matrix(1,0,0,1,-687,-708)">
        <path d="M710.025,829.416C709.273,833.676 713.716,822.965 713.87,822.622C717.534,814.48 718.721,806.723 718.721,798.368C718.721,798.249 718.955,801.923 719.162,802.337C720.492,804.997 718.593,807.894 718.28,810.716C717.686,816.054 710.342,828.683 710.342,830.119C710.342,831.117 715.821,826.215 718.28,823.945C725.513,817.268 730.085,809.674 735.919,801.896C736.328,801.351 736.249,801.455 736.801,801.455" style="fill:none;stroke-width:4px;"/>
        <path d="M719.272,797.407C690.984,801.473 697.112,779.492 697.112,758.238C697.112,748.082 696.543,730.11 705.491,723.4C715.365,715.994 742.51,719.036 754,720.313C789.504,724.258 827.236,713.151 863.365,717.667C870.534,718.563 871.707,726.412 874.39,731.779C879.421,741.84 884.407,782.366 873.067,790.871C858.021,802.156 835.458,800.573 817.943,800.573C791.044,800.573 764.491,801.896 737.683,801.896" style="fill:none;stroke-width:4px;"/>
        <g transform="matrix(0.951762,0,0,1,40.708,4.91999)">
            <path d="M715.937,734.204C714.879,734.973 716.016,738.388 716.075,739.275C716.218,741.421 714.262,752.161 716.957,746.772" style="fill:none;stroke-width:4.1px;"/>
        </g>
        <g transform="matrix(0.951762,0,0,1,40.708,4.91999)">
            <path d="M719.148,740.519C717.214,740.696 724.142,739.275 725.336,739.275" style="fill:none;stroke-width:4.1px;"/>
        </g>
        <g transform="matrix(0.951762,0,0,1,40.708,4.91999)">
            <path d="M726.052,733.563C726.312,732.838 727.465,748.686 727.981,747.654" style="fill:none;stroke-width:4.1px;"/>
        </g>
        <g transform="matrix(0.951762,0,0,1,40.708,4.91999)">
            <path d="M732.846,743.217C729.674,743.409 739.888,753.272 739.888,742.803C739.888,738.202 732.826,741.499 731.95,744.126" style="fill:none;stroke-width:4.1px;"/>
        </g>
        <g transform="matrix(0.951762,0,0,1,40.708,4.91999)">
            <path d="M748.708,740.168C748.616,740.257 751.283,724.389 746.062,732.22C743.562,735.969 742.087,750.763 750.472,748.095" style="fill:none;stroke-width:4.1px;"/>
        </g>
        <g transform="matrix(0.951762,0,0,1,40.708,4.91999)">
            <path d="M756.37,743.857C752.608,749.971 764.512,749.052 761.938,742.803C760.454,739.202 753.582,743.056 756.205,745.008" style="fill:none;stroke-width:4.1px;"/>
        </g>
        <g transform="matrix(0.951762,0,0,1,40.708,4.91999)">
            <path d="M762.861,745.904C762.71,747.466 767.95,746.772 768.993,746.772" style="fill:none;stroke-width:4.1px;"/>
        </g>
        <g transform="matrix(0.951762,0,0,1,40.708,4.91999)">
            <path d="M777.965,731.455C776.936,731.251 777.372,741.37 777.372,743.244" style="fill:none;stroke-width:4.1px;"/>
        </g>
        <g transform="matrix(0.951762,0,0,1,40.708,4.91999)">
            <path d="M778.902,752.808C778.26,753.818 778.448,752.806 778.695,752.064" style="fill:none;stroke-width:4.1px;"/>
        </g>
        <g transform="matrix(0.971733,0.236082,-0.236082,0.971733,212.077,-184.381)">
            <path d="M806.409,740.695C805.27,745.796 803.544,752.199 801.186,756.915" style="fill:none;stroke-width:4px;"/>
        </g>
        <g transform="matrix(0.971733,0.236082,-0.236082,0.971733,212.077,-184.381)">
            <path d="M802.77,752.757C805.303,752.332 807.492,751.667 810.005,752.505" style="fill:none;stroke-width:4px;"/>
        </g>
        <g transform="matrix(0.971733,0.236082,-0.236082,0.971733,212.077,-184.381)">
            <path d="M814.181,745.728C810.461,746.282 810.446,754.999 810.446,758.679" style="fill:none;stroke-width:4px;"/>
        </g>
        <g transform="matrix(0.971733,0.236082,-0.236082,0.971733,212.077,-184.381)">
            <path d="M814.829,756.736C821.269,757.59 824.304,752.412 819.707,752.946C814.78,753.518 814.031,761.766 819.707,761.766" style="fill:none;stroke-width:4px;"/>
        </g>
        <g transform="matrix(0.971733,0.236082,-0.236082,0.971733,212.077,-184.381)">
            <path d="M826.942,758.079C829.973,759.914 835.236,744.461 831.173,745.008C826.233,745.673 823.412,761.384 828.527,763.089" style="fill:none;stroke-width:4px;"/>
        </g>
        <g transform="matrix(0.971733,0.236082,-0.236082,0.971733,212.077,-184.381)">
            <path d="M833.612,760.074C832.173,759.92 834.451,759.534 835.142,759.12C836.742,758.16 842.31,750.603 838.967,749.488C831.811,747.103 829.773,765.917 835.583,768.822" style="fill:none;stroke-width:4px;"/>
        </g>
        <g transform="matrix(0.971733,0.236082,-0.236082,0.971733,212.077,-184.381)">
            <path d="M841.04,763.227C837.901,766.59 840.601,772.325 843.521,768.822C846.839,764.839 842.997,762.689 839.552,764.412" style="fill:none;stroke-width:4px;"/>
        </g>
        <g transform="matrix(0.971733,0.236082,-0.236082,0.971733,212.077,-184.381)">
            <path d="M855.262,756.674C855.745,754.801 852.297,765.553 851.899,767.94" style="fill:none;stroke-width:4px;"/>
        </g>
        <g transform="matrix(0.971733,0.236082,-0.236082,0.971733,209.808,-189.816)">
            <path d="M852.34,780.26C851.816,780.8 850.741,781.804 851.458,780.728" style="fill:none;stroke-width:4px;"/>
        </g>
        <g transform="matrix(0.973931,-0.226846,0.226846,0.973931,-273.489,338.798)">
            <path d="M904.708,665.471C902.09,662.044 894.963,672.298 898.854,675.614C902.943,679.1 911.227,678.466 914.08,673.711C914.458,673.081 917.533,666.192 916.256,665.554C915.087,664.969 915.176,671.703 915.712,672.623C917.263,675.285 920.799,675.402 923.053,673.711" style="fill:none;stroke-width:4px;"/>
        </g>
        <g transform="matrix(0.973931,-0.226846,0.226846,0.973931,-273.489,338.798)">
            <path d="M916.978,657.352C917.409,657.557 916.842,657.454 915.984,657.668" style="fill:none;stroke-width:4px;"/>
        </g>
        <g transform="matrix(0.973931,-0.226846,0.226846,0.973931,-273.489,338.798)">
            <path d="M927.514,667.529C927.025,666.006 925.575,667.405 925.228,668.273C923.871,671.666 924.123,677.548 929.307,676.43C930.652,676.139 932.157,675.132 933.114,674.254C939.559,668.346 929.139,663.339 927.676,667.729" style="fill:none;stroke-width:4px;"/>
        </g>
        <g transform="matrix(0.973931,-0.226846,0.226846,0.973931,-273.489,338.798)">
            <path d="M935.45,668.358C934.123,668.097 934.432,672.009 934.473,672.623C934.737,676.583 937.896,678.157 941.543,677.245" style="fill:none;stroke-width:4px;"/>
        </g>
        <g transform="matrix(0.973931,-0.226846,0.226846,0.973931,-273.489,338.798)">
            <path d="M944.763,668.358C940.643,667.659 937.888,676.599 941.815,677.517C946.379,678.584 955.611,672.323 950.752,667.464C949.44,666.152 943.103,666.841 944.262,668.001" style="fill:none;stroke-width:4px;"/>
        </g>
        <g transform="matrix(0.973931,-0.226846,0.226846,0.973931,-273.489,338.798)">
            <path d="M945.443,666.771C942.228,667.489 948.605,669.056 949.156,669.088C952.041,669.258 954.359,668.623 957.041,667.729" style="fill:none;stroke-width:4px;"/>
        </g>
    </g>
</svg>
