<svg xmlns="http://www.w3.org/2000/svg" xmlns:xlink="http://www.w3.org/1999/xlink" version="1.1" width="256" height="256" viewBox="0 0 256 256" xml:space="preserve">
<desc>Created with Fabric.js 1.7.22</desc>
<defs>
</defs>
<g transform="translate(128 128) scale(0.72 0.72)" style="">
	<g style="stroke: none; stroke-width: 0; stroke-dasharray: none; stroke-linecap: butt; stroke-linejoin: miter; stroke-miterlimit: 10; fill: none; fill-rule: nonzero; opacity: 1;" transform="translate(-175.05 -175.05000000000004) scale(3.89 3.89)" >
	<path d="M 77.474 17.28 L 61.526 1.332 C 60.668 0.473 59.525 0 58.311 0 H 15.742 c -2.508 0 -4.548 2.04 -4.548 4.548 v 80.904 c 0 2.508 2.04 4.548 4.548 4.548 h 58.516 c 2.508 0 4.549 -2.04 4.549 -4.548 V 20.496 C 78.807 19.281 78.333 18.138 77.474 17.28 z M 61.073 5.121 l 12.611 12.612 H 62.35 c -0.704 0 -1.276 -0.573 -1.276 -1.277 V 5.121 z M 15.742 3 h 42.332 v 13.456 c 0 2.358 1.918 4.277 4.276 4.277 h 13.457 v 33.2 H 14.194 V 4.548 C 14.194 3.694 14.888 3 15.742 3 z M 74.258 87 H 15.742 c -0.854 0 -1.548 -0.694 -1.548 -1.548 V 56.934 h 61.613 v 28.519 C 75.807 86.306 75.112 87 74.258 87 z" style="stroke: none; stroke-width: 1; stroke-dasharray: none; stroke-linecap: butt; stroke-linejoin: miter; stroke-miterlimit: 10; fill: rgb(0,0,0); fill-rule: nonzero; opacity: 1;" transform=" matrix(1 0 0 1 0 0) " stroke-linecap="round" />
	<path d="M 32.116 62.679 h -5.944 c -0.829 0 -1.5 0.672 -1.5 1.5 v 9.854 v 6.748 c 0 0.828 0.671 1.5 1.5 1.5 s 1.5 -0.672 1.5 -1.5 v -5.248 h 4.444 c 2.392 0 4.338 -1.946 4.338 -4.338 v -4.177 C 36.454 64.625 34.508 62.679 32.116 62.679 z M 33.454 71.194 c 0 0.737 -0.6 1.338 -1.338 1.338 h -4.444 v -6.854 h 4.444 c 0.738 0 1.338 0.601 1.338 1.339 V 71.194 z" style="stroke: none; stroke-width: 1; stroke-dasharray: none; stroke-linecap: butt; stroke-linejoin: miter; stroke-miterlimit: 10; fill: rgb(0,0,0); fill-rule: nonzero; opacity: 1;" transform=" matrix(1 0 0 1 0 0) " stroke-linecap="round" />
	<path d="M 46.109 82.28 h -5.652 c -0.829 0 -1.5 -0.672 -1.5 -1.5 V 64.179 c 0 -0.828 0.671 -1.5 1.5 -1.5 h 5.652 c 2.553 0 4.63 2.077 4.63 4.63 V 77.65 C 50.739 80.203 48.662 82.28 46.109 82.28 z M 41.957 79.28 h 4.152 c 0.898 0 1.63 -0.731 1.63 -1.63 V 67.309 c 0 -0.898 -0.731 -1.63 -1.63 -1.63 h -4.152 V 79.28 z" style="stroke: none; stroke-width: 1; stroke-dasharray: none; stroke-linecap: butt; stroke-linejoin: miter; stroke-miterlimit: 10; fill: rgb(0,0,0); fill-rule: nonzero; opacity: 1;" transform=" matrix(1 0 0 1 0 0) " stroke-linecap="round" />
	<path d="M 63.828 62.679 h -8.782 c -0.828 0 -1.5 0.672 -1.5 1.5 V 80.78 c 0 0.828 0.672 1.5 1.5 1.5 s 1.5 -0.672 1.5 -1.5 v -6.801 h 4.251 c 0.828 0 1.5 -0.672 1.5 -1.5 s -0.672 -1.5 -1.5 -1.5 h -4.251 v -5.301 h 7.282 c 0.828 0 1.5 -0.672 1.5 -1.5 S 64.656 62.679 63.828 62.679 z" style="stroke: none; stroke-width: 1; stroke-dasharray: none; stroke-linecap: butt; stroke-linejoin: miter; stroke-miterlimit: 10; fill: rgb(0,0,0); fill-rule: nonzero; opacity: 1;" transform=" matrix(1 0 0 1 0 0) " stroke-linecap="round" />
</g>
</g>
</svg>