<?xml version="1.0" encoding="UTF-8" standalone="no"?><!DOCTYPE svg PUBLIC "-//W3C//DTD SVG 1.1//EN" "http://www.w3.org/Graphics/SVG/1.1/DTD/svg11.dtd"><svg width="100%" height="100%" viewBox="0 0 148 48" version="1.1" xmlns="http://www.w3.org/2000/svg" xmlns:xlink="http://www.w3.org/1999/xlink" xml:space="preserve" xmlns:serif="http://www.serif.com/" style="fill-rule:evenodd;clip-rule:evenodd;stroke-linejoin:round;stroke-miterlimit:2;"><path d="M19.394,30.022c0.19,0.244 0.389,0.477 0.597,0.698c0.161,0.196 0.334,0.385 0.516,0.568c1.516,1.515 3.471,2.325 5.457,2.427c0.955,0.099 1.948,0.054 2.959,-0.148c4.823,-0.964 8.773,-5.767 9.138,-11.413c0.4,-6.196 -3.402,-11.439 -8.714,-12.488c-3.118,-0.615 -5.466,-0.08 -7.244,0.739c-3.495,1.61 -5.575,4.715 -6.124,8.474c-0.52,3.562 0.784,7.571 1.682,9.03c0.533,0.865 1.119,1.559 1.733,2.113Zm-2.18,-9.087c-0.118,0.37 -0.216,0.777 -0.285,1.225c0.065,-0.421 0.161,-0.83 0.285,-1.225Zm0.097,-0.291l-0.068,0.204l0.082,-0.241l-0.014,0.037Z"/><path d="M67.621,16.52c-2.046,1.978 -2.929,4.474 -2.982,6.529c-0.055,2.134 0.331,5.133 3.333,7.362c0.277,0.312 0.579,0.608 0.904,0.889c1.452,1.255 3.573,2.429 6.846,2.429c4.25,0 7.495,-2.393 9.001,-6.292c1.433,-2.95 1.376,-7.927 0.682,-10.009c-0.764,-2.293 -1.976,-3.793 -3.435,-4.733c-0.363,-0.39 -0.671,-0.632 -0.838,-0.766c-2.395,-1.924 -4.945,-2.269 -7.53,-1.55c-1.421,0.396 -3.368,1.28 -4.879,3.605c-0.3,0.461 -0.727,1.369 -1.102,2.536Z"/><path d="M113.805,13.077c-1.77,0.606 -3.176,1.641 -4.27,2.785c-5.893,6.167 -2.207,18.311 7.511,18.311c3.758,0 7.17,-1.978 9.224,-5.481c0.698,-1.063 1.258,-2.249 1.575,-3.431c0.524,-1.954 0.476,-3.895 -0.062,-5.653c-0.269,-1.552 -0.801,-2.996 -1.581,-4.167c-1.096,-1.643 -2.644,-2.855 -4.702,-3.471c-1.57,-0.47 -4.675,-0.617 -7.695,1.107Z"/></svg>