<?xml version="1.0" encoding="UTF-8" standalone="no"?>
<!-- Created with Inkpad (http://inkpad.envoza.com/) -->

<svg
   height="91.31353pt"
   viewBox="0 0 148.43914 91.313528"
   width="148.43915pt"
   version="1.1"
   id="svg1395"


   xmlns="http://www.w3.org/2000/svg"
   xmlns:svg="http://www.w3.org/2000/svg">

  <defs
     id="defs1371" />
  <g
     id="Layer 2"
     transform="translate(-207.00685,-314.50976)">
    <path
       stroke-width="3"
       d="m 333.342,393.489 c 0,0 4.331,-6.294 6.622,-9.349 3.852,-5.135 11.181,-12.278 12.465,-18.697 0.566,-2.827 -8.375,-2.142 -10.322,-2.142 -0.718,0 -3.917,0.194 -3.311,0.194"
       stroke-linecap="round"
       opacity="1"
       stroke-linejoin="round"
       id="path1373" />
  </g>
  <g
     id="Layer 1"
     transform="translate(-205.50685,-314.50976)">
    <path
       stroke-width="3"
       d="m 271.784,580.058 c 0,-1.226 0.571,-2.554 1.525,-3.926"
       stroke-linecap="round"
       opacity="1"
       stroke-linejoin="round"
       id="path1376" />
    <path
       stroke-width="9"
       d="m 211.336,327.133 c 0.84,-4.001 -1.451,15.019 -1.451,18.658 0,8.884 -6.995,47.618 0.83,53.487 10.455,7.841 115.649,7.109 122.313,-6.22 2.686,-5.371 10.746,-71.737 0.415,-73.803 -36.333,-7.266 -81.218,0 -118.168,0 -5.437,0 -5,12.937 -3.939,7.878 z"
       stroke-linecap="round"
       opacity="1"
       stroke-linejoin="round"
       id="path1378" />
    <path
       stroke-width="1"
       d="m 256.314,351.031 c 2.114,-2.678 4.577,-12.566 4.577,-9.154 0,17.537 20.06,1.264 20.06,9.154 0,3.076 6.428,-9.698 6.428,-6.622 0,3.501 1.737,13.304 0.973,16.36 -5.887,23.549 -48.355,10.926 -32.038,-9.738 z"
       stroke-linecap="round"
       opacity="1"
       stroke-linejoin="round"
       id="path1380" />
    <path
       stroke-width="1"
       d="m 288.937,357.068 c 0,0 8.569,-5.939 8.569,-2.921"
       stroke-linecap="round"
       fill-opacity="0"
       opacity="1"
       stroke-linejoin="round"
       id="path1382" />
    <path
       stroke-width="1"
       d="m 287.963,361.743 c 0,0 5.71,0.389 8.569,0.389"
       stroke-linecap="round"
       fill-opacity="0"
       opacity="1"
       stroke-linejoin="round"
       id="path1384" />
    <path
       stroke-width="1"
       d="m 286.6,365.443 c -0.328,0 6.313,1.915 7.206,3.7"
       stroke-linecap="round"
       fill-opacity="0"
       opacity="1"
       stroke-linejoin="round"
       id="path1386" />
    <path
       stroke-width="1"
       d="m 253.1,358.821 c -0.998,-1.998 -6.873,-4.285 -8.959,-4.285"
       stroke-linecap="round"
       fill-opacity="0"
       opacity="1"
       stroke-linejoin="round"
       id="path1388" />
    <path
       stroke-width="1"
       d="m 253.295,362.716 c -1.979,0 -10.044,0.445 -9.543,0.195"
       stroke-linecap="round"
       fill-opacity="0"
       opacity="1"
       stroke-linejoin="round"
       id="path1390" />
    <path
       stroke-width="1"
       d="m 254.853,367.001 c 0,0 -11.18,5.636 -8.569,3.895"
       stroke-linecap="round"
       fill-opacity="0"
       opacity="1"
       stroke-linejoin="round"
       id="path1392" />
  </g>
</svg>
