<?xml version="1.0" encoding="UTF-8" standalone="no"?>
<svg
   width="100%"
   height="100%"
   viewBox="0 0 22 30"
   version="1.1"
   xml:space="preserve"
   style="fill-rule:evenodd;clip-rule:evenodd;stroke-linejoin:round;stroke-miterlimit:2;"
   id="svg55"
   sodipodi:docname="tick(1).svg"
   inkscape:version="1.1.2 (b8e25be8, 2022-02-05)"
   xmlns:inkscape="http://www.inkscape.org/namespaces/inkscape"
   xmlns:sodipodi="http://sodipodi.sourceforge.net/DTD/sodipodi-0.dtd"
   xmlns="http://www.w3.org/2000/svg"
   xmlns:svg="http://www.w3.org/2000/svg"><defs
     id="defs59" /><sodipodi:namedview
     id="namedview57"
     pagecolor="#ffffff"
     bordercolor="#666666"
     borderopacity="1.0"
     inkscape:pageshadow="2"
     inkscape:pageopacity="0.0"
     inkscape:pagecheckerboard="0"
     showgrid="false"
     inkscape:zoom="20.288457"
     inkscape:cx="16.684364"
     inkscape:cy="9.5127982"
     inkscape:window-width="1440"
     inkscape:window-height="872"
     inkscape:window-x="0"
     inkscape:window-y="28"
     inkscape:window-maximized="0"
     inkscape:current-layer="svg55" /><path
     d="M 8.479,20.659 8.212,20.045 C 7.819,19.153 7.426,18.26 7.033,17.367 L 5.427,13.735 C 5.423,13.699 5.418,13.662 5.412,13.626 5.233,12.547 4.212,11.816 3.133,11.994 2.715,12.064 1.012,12.77 1.57,14.722 c 0.373,1.301 3.359,7.654 3.569,8.199 0.378,0.98 0.699,1.989 0.995,3.007 0.129,0.443 0.269,1.458 0.402,1.946 0.134,0.493 0.341,0.82 0.469,0.978 0.351,0.436 0.758,0.619 1.102,0.703 0.462,0.113 0.921,0.072 1.376,-0.156 0.265,-0.133 0.853,-0.447 1.101,-1.431 2.074,-8.252 3.672,-12.392 6.241,-17.252 C 17.523,9.395 19.6,6.495 20.324,4.672 20.727,3.656 20.23,2.503 19.213,2.099 18.196,1.696 17.043,2.193 16.64,3.21 15.96,4.921 13.976,7.624 13.32,8.864 11.37,12.555 9.943,15.847 8.479,20.659 Z"
     id="path53"
     sodipodi:nodetypes="cccccccccccccccccccc" /></svg>
